<mxfile host="Electron" agent="Mozilla/5.0 (Windows NT 10.0; Win64; x64) AppleWebKit/537.36 (KHTML, like Gecko) draw.io/24.7.5 Chrome/126.0.6478.183 Electron/31.3.0 Safari/537.36" version="24.7.5">
  <diagram name="第 1 页" id="2QriNIWdTIV_ohWtYcBS">
    <mxGraphModel dx="2263" dy="978" grid="1" gridSize="10" guides="1" tooltips="1" connect="1" arrows="1" fold="1" page="1" pageScale="1" pageWidth="827" pageHeight="1169" math="1" shadow="0">
      <root>
        <mxCell id="0" />
        <mxCell id="1" parent="0" />
        <mxCell id="cwPCQVJeZr_FaRnFtmwM-8" value="RCNN" style="swimlane;whiteSpace=wrap;html=1;fillColor=#ffe6cc;strokeColor=#d79b00;" parent="1" vertex="1">
          <mxGeometry x="-800" y="20" width="287" height="480" as="geometry" />
        </mxCell>
        <mxCell id="IHbscHtPoXPS6cWj9M0w-25" value="" style="edgeStyle=orthogonalEdgeStyle;rounded=0;orthogonalLoop=1;jettySize=auto;html=1;" parent="cwPCQVJeZr_FaRnFtmwM-8" source="cwPCQVJeZr_FaRnFtmwM-9" target="IHbscHtPoXPS6cWj9M0w-24" edge="1">
          <mxGeometry relative="1" as="geometry" />
        </mxCell>
        <mxCell id="cwPCQVJeZr_FaRnFtmwM-9" value="SS" style="rounded=1;whiteSpace=wrap;html=1;fillColor=#1ba1e2;fontColor=#ffffff;strokeColor=#006EAF;" parent="cwPCQVJeZr_FaRnFtmwM-8" vertex="1">
          <mxGeometry x="80" y="120" width="120" height="60" as="geometry" />
        </mxCell>
        <mxCell id="cwPCQVJeZr_FaRnFtmwM-25" style="edgeStyle=orthogonalEdgeStyle;rounded=0;orthogonalLoop=1;jettySize=auto;html=1;entryX=0.5;entryY=0;entryDx=0;entryDy=0;" parent="cwPCQVJeZr_FaRnFtmwM-8" source="cwPCQVJeZr_FaRnFtmwM-12" target="cwPCQVJeZr_FaRnFtmwM-20" edge="1">
          <mxGeometry relative="1" as="geometry" />
        </mxCell>
        <mxCell id="cwPCQVJeZr_FaRnFtmwM-12" value="CNN" style="rounded=1;whiteSpace=wrap;html=1;fillColor=#60a917;fontColor=#ffffff;strokeColor=#2D7600;" parent="cwPCQVJeZr_FaRnFtmwM-8" vertex="1">
          <mxGeometry x="80" y="290" width="120" height="60" as="geometry" />
        </mxCell>
        <mxCell id="cwPCQVJeZr_FaRnFtmwM-14" value="cls&lt;br&gt;(SVM)" style="rounded=1;whiteSpace=wrap;html=1;fillColor=#d80073;fontColor=#ffffff;strokeColor=#A50040;" parent="cwPCQVJeZr_FaRnFtmwM-8" vertex="1">
          <mxGeometry x="10" y="399" width="120" height="60" as="geometry" />
        </mxCell>
        <mxCell id="cwPCQVJeZr_FaRnFtmwM-20" value="bbox reg&lt;br&gt;(Least square)" style="rounded=1;whiteSpace=wrap;html=1;fillColor=#d80073;fontColor=#ffffff;strokeColor=#A50040;" parent="cwPCQVJeZr_FaRnFtmwM-8" vertex="1">
          <mxGeometry x="150" y="399" width="120" height="60" as="geometry" />
        </mxCell>
        <mxCell id="cwPCQVJeZr_FaRnFtmwM-26" style="edgeStyle=orthogonalEdgeStyle;rounded=0;orthogonalLoop=1;jettySize=auto;html=1;entryX=0.438;entryY=-0.004;entryDx=0;entryDy=0;entryPerimeter=0;" parent="cwPCQVJeZr_FaRnFtmwM-8" source="cwPCQVJeZr_FaRnFtmwM-12" target="cwPCQVJeZr_FaRnFtmwM-14" edge="1">
          <mxGeometry relative="1" as="geometry" />
        </mxCell>
        <mxCell id="IHbscHtPoXPS6cWj9M0w-3" style="edgeStyle=orthogonalEdgeStyle;rounded=0;orthogonalLoop=1;jettySize=auto;html=1;entryX=0.5;entryY=0;entryDx=0;entryDy=0;" parent="cwPCQVJeZr_FaRnFtmwM-8" source="IHbscHtPoXPS6cWj9M0w-2" target="cwPCQVJeZr_FaRnFtmwM-9" edge="1">
          <mxGeometry relative="1" as="geometry" />
        </mxCell>
        <mxCell id="IHbscHtPoXPS6cWj9M0w-2" value="image" style="rounded=0;whiteSpace=wrap;html=1;fillColor=#6a00ff;strokeColor=#3700CC;fontColor=#ffffff;" parent="cwPCQVJeZr_FaRnFtmwM-8" vertex="1">
          <mxGeometry x="80" y="40" width="120" height="60" as="geometry" />
        </mxCell>
        <mxCell id="IHbscHtPoXPS6cWj9M0w-26" value="" style="edgeStyle=orthogonalEdgeStyle;rounded=0;orthogonalLoop=1;jettySize=auto;html=1;" parent="cwPCQVJeZr_FaRnFtmwM-8" source="IHbscHtPoXPS6cWj9M0w-24" target="cwPCQVJeZr_FaRnFtmwM-12" edge="1">
          <mxGeometry relative="1" as="geometry" />
        </mxCell>
        <mxCell id="IHbscHtPoXPS6cWj9M0w-24" value="&lt;font color=&quot;#ff3333&quot;&gt;each&lt;/font&gt; RoI in image" style="rounded=1;whiteSpace=wrap;html=1;fillColor=#6a00ff;fontColor=#ffffff;strokeColor=#3700CC;" parent="cwPCQVJeZr_FaRnFtmwM-8" vertex="1">
          <mxGeometry x="80" y="200" width="120" height="60" as="geometry" />
        </mxCell>
        <mxCell id="cwPCQVJeZr_FaRnFtmwM-29" value="Fast RCNN" style="swimlane;whiteSpace=wrap;html=1;fillColor=#ffe6cc;strokeColor=#d79b00;" parent="1" vertex="1">
          <mxGeometry x="-513" y="20" width="300" height="480" as="geometry" />
        </mxCell>
        <mxCell id="IHbscHtPoXPS6cWj9M0w-41" value="" style="edgeStyle=orthogonalEdgeStyle;rounded=0;orthogonalLoop=1;jettySize=auto;html=1;" parent="cwPCQVJeZr_FaRnFtmwM-29" source="cwPCQVJeZr_FaRnFtmwM-31" target="IHbscHtPoXPS6cWj9M0w-40" edge="1">
          <mxGeometry relative="1" as="geometry" />
        </mxCell>
        <mxCell id="cwPCQVJeZr_FaRnFtmwM-31" value="SS" style="rounded=1;whiteSpace=wrap;html=1;fillColor=#1ba1e2;fontColor=#ffffff;strokeColor=#006EAF;" parent="cwPCQVJeZr_FaRnFtmwM-29" vertex="1">
          <mxGeometry x="87" y="120" width="120" height="60" as="geometry" />
        </mxCell>
        <mxCell id="IHbscHtPoXPS6cWj9M0w-43" style="edgeStyle=orthogonalEdgeStyle;rounded=0;orthogonalLoop=1;jettySize=auto;html=1;entryX=0.5;entryY=0;entryDx=0;entryDy=0;" parent="cwPCQVJeZr_FaRnFtmwM-29" source="cwPCQVJeZr_FaRnFtmwM-33" target="cwPCQVJeZr_FaRnFtmwM-34" edge="1">
          <mxGeometry relative="1" as="geometry" />
        </mxCell>
        <mxCell id="IHbscHtPoXPS6cWj9M0w-44" style="edgeStyle=orthogonalEdgeStyle;rounded=0;orthogonalLoop=1;jettySize=auto;html=1;entryX=0.5;entryY=0;entryDx=0;entryDy=0;" parent="cwPCQVJeZr_FaRnFtmwM-29" source="cwPCQVJeZr_FaRnFtmwM-33" target="cwPCQVJeZr_FaRnFtmwM-35" edge="1">
          <mxGeometry relative="1" as="geometry" />
        </mxCell>
        <mxCell id="cwPCQVJeZr_FaRnFtmwM-33" value="CNN" style="rounded=1;whiteSpace=wrap;html=1;fillColor=#60a917;fontColor=#ffffff;strokeColor=#2D7600;" parent="cwPCQVJeZr_FaRnFtmwM-29" vertex="1">
          <mxGeometry x="87" y="291" width="120" height="60" as="geometry" />
        </mxCell>
        <mxCell id="cwPCQVJeZr_FaRnFtmwM-34" value="cls&lt;br&gt;(fc1)" style="rounded=1;whiteSpace=wrap;html=1;fillColor=#d80073;fontColor=#ffffff;strokeColor=#A50040;" parent="cwPCQVJeZr_FaRnFtmwM-29" vertex="1">
          <mxGeometry x="17" y="400" width="120" height="60" as="geometry" />
        </mxCell>
        <mxCell id="cwPCQVJeZr_FaRnFtmwM-35" value="bbox reg&lt;br&gt;(fc2)" style="rounded=1;whiteSpace=wrap;html=1;fillColor=#d80073;fontColor=#ffffff;strokeColor=#A50040;" parent="cwPCQVJeZr_FaRnFtmwM-29" vertex="1">
          <mxGeometry x="160" y="400" width="120" height="60" as="geometry" />
        </mxCell>
        <mxCell id="IHbscHtPoXPS6cWj9M0w-28" value="" style="edgeStyle=orthogonalEdgeStyle;rounded=0;orthogonalLoop=1;jettySize=auto;html=1;" parent="cwPCQVJeZr_FaRnFtmwM-29" source="IHbscHtPoXPS6cWj9M0w-27" target="cwPCQVJeZr_FaRnFtmwM-31" edge="1">
          <mxGeometry relative="1" as="geometry" />
        </mxCell>
        <mxCell id="IHbscHtPoXPS6cWj9M0w-27" value="image" style="rounded=0;whiteSpace=wrap;html=1;fillColor=#6a00ff;strokeColor=#3700CC;fontColor=#ffffff;" parent="cwPCQVJeZr_FaRnFtmwM-29" vertex="1">
          <mxGeometry x="87" y="40" width="120" height="60" as="geometry" />
        </mxCell>
        <mxCell id="IHbscHtPoXPS6cWj9M0w-42" value="" style="edgeStyle=orthogonalEdgeStyle;rounded=0;orthogonalLoop=1;jettySize=auto;html=1;" parent="cwPCQVJeZr_FaRnFtmwM-29" source="IHbscHtPoXPS6cWj9M0w-40" target="cwPCQVJeZr_FaRnFtmwM-33" edge="1">
          <mxGeometry relative="1" as="geometry" />
        </mxCell>
        <mxCell id="IHbscHtPoXPS6cWj9M0w-40" value="&lt;font color=&quot;#ff3333&quot;&gt;whole&lt;/font&gt; RoI &lt;font color=&quot;#ff3333&quot;&gt;projected&lt;/font&gt;&lt;br&gt;in feature map" style="rounded=1;whiteSpace=wrap;html=1;fillColor=#6a00ff;fontColor=#ffffff;strokeColor=#3700CC;" parent="cwPCQVJeZr_FaRnFtmwM-29" vertex="1">
          <mxGeometry x="78.5" y="210" width="137" height="60" as="geometry" />
        </mxCell>
        <mxCell id="cwPCQVJeZr_FaRnFtmwM-37" value="Fast RCNN" style="swimlane;whiteSpace=wrap;html=1;fillColor=#ffe6cc;strokeColor=#d79b00;" parent="1" vertex="1">
          <mxGeometry x="-213" y="20" width="430" height="480" as="geometry" />
        </mxCell>
        <mxCell id="IHbscHtPoXPS6cWj9M0w-53" style="edgeStyle=orthogonalEdgeStyle;rounded=0;orthogonalLoop=1;jettySize=auto;html=1;" parent="cwPCQVJeZr_FaRnFtmwM-37" source="cwPCQVJeZr_FaRnFtmwM-41" target="cwPCQVJeZr_FaRnFtmwM-43" edge="1">
          <mxGeometry relative="1" as="geometry" />
        </mxCell>
        <mxCell id="IHbscHtPoXPS6cWj9M0w-54" style="edgeStyle=orthogonalEdgeStyle;rounded=0;orthogonalLoop=1;jettySize=auto;html=1;entryX=0.5;entryY=0;entryDx=0;entryDy=0;" parent="cwPCQVJeZr_FaRnFtmwM-37" source="cwPCQVJeZr_FaRnFtmwM-41" target="cwPCQVJeZr_FaRnFtmwM-42" edge="1">
          <mxGeometry relative="1" as="geometry" />
        </mxCell>
        <mxCell id="cwPCQVJeZr_FaRnFtmwM-41" value="RoI pooling&lt;div&gt;(RoI Head)&lt;/div&gt;" style="rounded=1;whiteSpace=wrap;html=1;fillColor=#60a917;fontColor=#ffffff;strokeColor=#2D7600;" parent="cwPCQVJeZr_FaRnFtmwM-37" vertex="1">
          <mxGeometry x="120" y="270" width="120" height="60" as="geometry" />
        </mxCell>
        <mxCell id="cwPCQVJeZr_FaRnFtmwM-42" value="cls&lt;br&gt;(fc1)" style="rounded=1;whiteSpace=wrap;html=1;fillColor=#d80073;fontColor=#ffffff;strokeColor=#A50040;" parent="cwPCQVJeZr_FaRnFtmwM-37" vertex="1">
          <mxGeometry x="20" y="400" width="120" height="60" as="geometry" />
        </mxCell>
        <mxCell id="cwPCQVJeZr_FaRnFtmwM-43" value="bbox reg&lt;br&gt;(fc2)" style="rounded=1;whiteSpace=wrap;html=1;fillColor=#d80073;fontColor=#ffffff;strokeColor=#A50040;" parent="cwPCQVJeZr_FaRnFtmwM-37" vertex="1">
          <mxGeometry x="220" y="400" width="120" height="60" as="geometry" />
        </mxCell>
        <mxCell id="IHbscHtPoXPS6cWj9M0w-50" style="edgeStyle=orthogonalEdgeStyle;rounded=0;orthogonalLoop=1;jettySize=auto;html=1;entryX=1;entryY=0.5;entryDx=0;entryDy=0;exitX=0.5;exitY=1;exitDx=0;exitDy=0;" parent="cwPCQVJeZr_FaRnFtmwM-37" source="cwPCQVJeZr_FaRnFtmwM-52" target="cwPCQVJeZr_FaRnFtmwM-41" edge="1">
          <mxGeometry relative="1" as="geometry" />
        </mxCell>
        <mxCell id="cwPCQVJeZr_FaRnFtmwM-52" value="RPN" style="rounded=1;whiteSpace=wrap;html=1;fillColor=#1ba1e2;fontColor=#ffffff;strokeColor=#006EAF;" parent="cwPCQVJeZr_FaRnFtmwM-37" vertex="1">
          <mxGeometry x="280" y="210" width="120" height="60" as="geometry" />
        </mxCell>
        <mxCell id="IHbscHtPoXPS6cWj9M0w-49" style="edgeStyle=orthogonalEdgeStyle;rounded=0;orthogonalLoop=1;jettySize=auto;html=1;entryX=0.5;entryY=0;entryDx=0;entryDy=0;" parent="cwPCQVJeZr_FaRnFtmwM-37" source="IHbscHtPoXPS6cWj9M0w-46" target="cwPCQVJeZr_FaRnFtmwM-52" edge="1">
          <mxGeometry relative="1" as="geometry" />
        </mxCell>
        <mxCell id="IHbscHtPoXPS6cWj9M0w-51" style="edgeStyle=orthogonalEdgeStyle;rounded=0;orthogonalLoop=1;jettySize=auto;html=1;" parent="cwPCQVJeZr_FaRnFtmwM-37" source="IHbscHtPoXPS6cWj9M0w-46" target="cwPCQVJeZr_FaRnFtmwM-41" edge="1">
          <mxGeometry relative="1" as="geometry" />
        </mxCell>
        <mxCell id="IHbscHtPoXPS6cWj9M0w-46" value="CNN" style="rounded=1;whiteSpace=wrap;html=1;fillColor=#60a917;fontColor=#ffffff;strokeColor=#2D7600;" parent="cwPCQVJeZr_FaRnFtmwM-37" vertex="1">
          <mxGeometry x="120" y="140" width="120" height="60" as="geometry" />
        </mxCell>
        <mxCell id="IHbscHtPoXPS6cWj9M0w-48" value="" style="edgeStyle=orthogonalEdgeStyle;rounded=0;orthogonalLoop=1;jettySize=auto;html=1;" parent="cwPCQVJeZr_FaRnFtmwM-37" source="IHbscHtPoXPS6cWj9M0w-47" target="IHbscHtPoXPS6cWj9M0w-46" edge="1">
          <mxGeometry relative="1" as="geometry" />
        </mxCell>
        <mxCell id="IHbscHtPoXPS6cWj9M0w-47" value="image" style="rounded=0;whiteSpace=wrap;html=1;fillColor=#6a00ff;strokeColor=#3700CC;fontColor=#ffffff;" parent="cwPCQVJeZr_FaRnFtmwM-37" vertex="1">
          <mxGeometry x="120" y="40" width="120" height="60" as="geometry" />
        </mxCell>
        <mxCell id="IHbscHtPoXPS6cWj9M0w-55" value="feature map" style="whiteSpace=wrap;html=1;" parent="cwPCQVJeZr_FaRnFtmwM-37" vertex="1">
          <mxGeometry x="260" y="150" width="80" height="20" as="geometry" />
        </mxCell>
        <mxCell id="IHbscHtPoXPS6cWj9M0w-57" value="" style="group" parent="1" vertex="1" connectable="0">
          <mxGeometry x="-800" y="500" width="587" height="500" as="geometry" />
        </mxCell>
        <mxCell id="cwPCQVJeZr_FaRnFtmwM-2" value="Training of Faster R-CNN(4 step)" style="swimlane;whiteSpace=wrap;html=1;fillColor=#e1d5e7;strokeColor=default;swimlaneFillColor=none;gradientColor=none;rounded=0;glass=0;swimlaneLine=1;" parent="IHbscHtPoXPS6cWj9M0w-57" vertex="1">
          <mxGeometry width="587" height="500" as="geometry">
            <mxRectangle x="-585" y="800" width="140" height="30" as="alternateBounds" />
          </mxGeometry>
        </mxCell>
        <mxCell id="BoxG3O7RYdr3jMfG4PqG-7" style="edgeStyle=orthogonalEdgeStyle;rounded=0;orthogonalLoop=1;jettySize=auto;html=1;entryX=0;entryY=0.5;entryDx=0;entryDy=0;" parent="IHbscHtPoXPS6cWj9M0w-57" source="BoxG3O7RYdr3jMfG4PqG-1" target="BoxG3O7RYdr3jMfG4PqG-2" edge="1">
          <mxGeometry relative="1" as="geometry" />
        </mxCell>
        <mxCell id="BoxG3O7RYdr3jMfG4PqG-1" value="Fore CNN" style="rounded=1;whiteSpace=wrap;html=1;fillColor=#ffff88;strokeColor=#36393d;" parent="IHbscHtPoXPS6cWj9M0w-57" vertex="1">
          <mxGeometry x="218.88135593220338" y="40" width="119.38983050847457" height="60" as="geometry" />
        </mxCell>
        <mxCell id="BoxG3O7RYdr3jMfG4PqG-13" style="rounded=0;orthogonalLoop=1;jettySize=auto;html=1;" parent="IHbscHtPoXPS6cWj9M0w-57" source="BoxG3O7RYdr3jMfG4PqG-2" target="BoxG3O7RYdr3jMfG4PqG-12" edge="1">
          <mxGeometry relative="1" as="geometry" />
        </mxCell>
        <mxCell id="BoxG3O7RYdr3jMfG4PqG-2" value="&lt;div&gt;&lt;br&gt;&lt;/div&gt;RPN(conv+fc)&lt;div&gt;&lt;br&gt;&lt;/div&gt;" style="rounded=1;whiteSpace=wrap;html=1;fillColor=#0050ef;fontColor=#ffffff;strokeColor=#001DBC;" parent="IHbscHtPoXPS6cWj9M0w-57" vertex="1">
          <mxGeometry x="457.66101694915255" y="40" width="119.38983050847457" height="60" as="geometry" />
        </mxCell>
        <mxCell id="BoxG3O7RYdr3jMfG4PqG-5" style="edgeStyle=orthogonalEdgeStyle;rounded=0;orthogonalLoop=1;jettySize=auto;html=1;entryX=0;entryY=0.5;entryDx=0;entryDy=0;" parent="IHbscHtPoXPS6cWj9M0w-57" source="BoxG3O7RYdr3jMfG4PqG-4" target="BoxG3O7RYdr3jMfG4PqG-1" edge="1">
          <mxGeometry relative="1" as="geometry" />
        </mxCell>
        <mxCell id="BoxG3O7RYdr3jMfG4PqG-4" value="ImaeNet pre-train&amp;nbsp;&lt;div&gt;cls- model&lt;/div&gt;" style="rounded=0;whiteSpace=wrap;html=1;fillColor=#d80073;fontColor=#ffffff;strokeColor=#A50040;" parent="IHbscHtPoXPS6cWj9M0w-57" vertex="1">
          <mxGeometry x="19.89830508474576" y="40" width="119.38983050847457" height="60" as="geometry" />
        </mxCell>
        <mxCell id="BoxG3O7RYdr3jMfG4PqG-6" value="init" style="text;html=1;align=center;verticalAlign=middle;resizable=0;points=[];autosize=1;strokeColor=none;fillColor=none;" parent="IHbscHtPoXPS6cWj9M0w-57" vertex="1">
          <mxGeometry x="159.1864406779661" y="40" width="40" height="30" as="geometry" />
        </mxCell>
        <mxCell id="BoxG3O7RYdr3jMfG4PqG-8" value="train alone" style="text;html=1;align=center;verticalAlign=middle;resizable=0;points=[];autosize=1;strokeColor=none;fillColor=none;" parent="IHbscHtPoXPS6cWj9M0w-57" vertex="1">
          <mxGeometry x="348.22033898305085" y="40" width="80" height="30" as="geometry" />
        </mxCell>
        <mxCell id="BoxG3O7RYdr3jMfG4PqG-9" value="init" style="text;html=1;align=center;verticalAlign=middle;resizable=0;points=[];autosize=1;strokeColor=none;fillColor=none;" parent="IHbscHtPoXPS6cWj9M0w-57" vertex="1">
          <mxGeometry x="159.1864406779661" y="150" width="40" height="30" as="geometry" />
        </mxCell>
        <mxCell id="BoxG3O7RYdr3jMfG4PqG-10" style="edgeStyle=orthogonalEdgeStyle;rounded=0;orthogonalLoop=1;jettySize=auto;html=1;entryX=0;entryY=0.5;entryDx=0;entryDy=0;" parent="IHbscHtPoXPS6cWj9M0w-57" source="BoxG3O7RYdr3jMfG4PqG-12" target="BoxG3O7RYdr3jMfG4PqG-11" edge="1">
          <mxGeometry relative="1" as="geometry" />
        </mxCell>
        <mxCell id="BoxG3O7RYdr3jMfG4PqG-15" style="edgeStyle=orthogonalEdgeStyle;rounded=0;orthogonalLoop=1;jettySize=auto;html=1;entryX=0;entryY=0.5;entryDx=0;entryDy=0;" parent="IHbscHtPoXPS6cWj9M0w-57" source="BoxG3O7RYdr3jMfG4PqG-11" target="BoxG3O7RYdr3jMfG4PqG-16" edge="1">
          <mxGeometry relative="1" as="geometry">
            <mxPoint x="397.96610169491527" y="180" as="targetPoint" />
          </mxGeometry>
        </mxCell>
        <mxCell id="BoxG3O7RYdr3jMfG4PqG-11" value="Fore CNN" style="rounded=1;whiteSpace=wrap;html=1;fillColor=#ffff88;strokeColor=#36393d;" parent="IHbscHtPoXPS6cWj9M0w-57" vertex="1">
          <mxGeometry x="218.88135593220338" y="150" width="119.38983050847457" height="60" as="geometry" />
        </mxCell>
        <mxCell id="BoxG3O7RYdr3jMfG4PqG-12" value="ImaeNet pre-train&amp;nbsp;&lt;div&gt;cls- model&lt;/div&gt;" style="rounded=0;whiteSpace=wrap;html=1;fillColor=#d80073;fontColor=#ffffff;strokeColor=#A50040;" parent="IHbscHtPoXPS6cWj9M0w-57" vertex="1">
          <mxGeometry x="19.89830508474576" y="150" width="119.38983050847457" height="60" as="geometry" />
        </mxCell>
        <mxCell id="BoxG3O7RYdr3jMfG4PqG-14" value="fix RPN" style="text;html=1;align=center;verticalAlign=middle;resizable=0;points=[];autosize=1;strokeColor=none;fillColor=none;rotation=-15;" parent="IHbscHtPoXPS6cWj9M0w-57" vertex="1">
          <mxGeometry x="258.6779661016949" y="100" width="60" height="30" as="geometry" />
        </mxCell>
        <mxCell id="BoxG3O7RYdr3jMfG4PqG-19" style="rounded=0;orthogonalLoop=1;jettySize=auto;html=1;" parent="IHbscHtPoXPS6cWj9M0w-57" source="BoxG3O7RYdr3jMfG4PqG-16" target="BoxG3O7RYdr3jMfG4PqG-18" edge="1">
          <mxGeometry relative="1" as="geometry" />
        </mxCell>
        <mxCell id="BoxG3O7RYdr3jMfG4PqG-16" value="Fast RCNN(conv+fc)&lt;br&gt;(RoI Head)" style="rounded=1;whiteSpace=wrap;html=1;fillColor=#008a00;fontColor=#ffffff;strokeColor=#005700;" parent="IHbscHtPoXPS6cWj9M0w-57" vertex="1">
          <mxGeometry x="457.66101694915255" y="150" width="119.38983050847457" height="60" as="geometry" />
        </mxCell>
        <mxCell id="BoxG3O7RYdr3jMfG4PqG-17" value="train except RPN" style="text;html=1;align=center;verticalAlign=middle;resizable=0;points=[];autosize=1;strokeColor=none;fillColor=none;" parent="IHbscHtPoXPS6cWj9M0w-57" vertex="1">
          <mxGeometry x="338.271186440678" y="150" width="110" height="30" as="geometry" />
        </mxCell>
        <mxCell id="BoxG3O7RYdr3jMfG4PqG-22" style="edgeStyle=orthogonalEdgeStyle;rounded=0;orthogonalLoop=1;jettySize=auto;html=1;entryX=0;entryY=0.5;entryDx=0;entryDy=0;" parent="IHbscHtPoXPS6cWj9M0w-57" source="BoxG3O7RYdr3jMfG4PqG-18" target="BoxG3O7RYdr3jMfG4PqG-21" edge="1">
          <mxGeometry relative="1" as="geometry" />
        </mxCell>
        <mxCell id="BoxG3O7RYdr3jMfG4PqG-18" value="RPN(conv+fc)" style="rounded=1;whiteSpace=wrap;html=1;fillColor=#0050ef;fontColor=#ffffff;strokeColor=#001DBC;" parent="IHbscHtPoXPS6cWj9M0w-57" vertex="1">
          <mxGeometry x="19.89830508474576" y="270" width="119.38983050847457" height="60" as="geometry" />
        </mxCell>
        <mxCell id="BoxG3O7RYdr3jMfG4PqG-20" value="fine tuning" style="text;html=1;align=center;verticalAlign=middle;resizable=0;points=[];autosize=1;strokeColor=none;fillColor=none;rotation=-15;" parent="IHbscHtPoXPS6cWj9M0w-57" vertex="1">
          <mxGeometry x="218.88135593220338" y="220" width="80" height="30" as="geometry" />
        </mxCell>
        <mxCell id="BoxG3O7RYdr3jMfG4PqG-25" style="edgeStyle=orthogonalEdgeStyle;rounded=0;orthogonalLoop=1;jettySize=auto;html=1;entryX=0;entryY=0.5;entryDx=0;entryDy=0;" parent="IHbscHtPoXPS6cWj9M0w-57" source="BoxG3O7RYdr3jMfG4PqG-21" target="BoxG3O7RYdr3jMfG4PqG-24" edge="1">
          <mxGeometry relative="1" as="geometry" />
        </mxCell>
        <mxCell id="BoxG3O7RYdr3jMfG4PqG-21" value="Fore CNN" style="rounded=1;whiteSpace=wrap;html=1;fillColor=#ffff88;strokeColor=#36393d;" parent="IHbscHtPoXPS6cWj9M0w-57" vertex="1">
          <mxGeometry x="218.88135593220338" y="270" width="119.38983050847457" height="60" as="geometry" />
        </mxCell>
        <mxCell id="BoxG3O7RYdr3jMfG4PqG-23" value="fix Fore CNN" style="text;html=1;align=center;verticalAlign=middle;resizable=0;points=[];autosize=1;strokeColor=none;fillColor=none;" parent="IHbscHtPoXPS6cWj9M0w-57" vertex="1">
          <mxGeometry x="134.31355932203388" y="278" width="90" height="30" as="geometry" />
        </mxCell>
        <mxCell id="BoxG3O7RYdr3jMfG4PqG-30" style="rounded=0;orthogonalLoop=1;jettySize=auto;html=1;" parent="IHbscHtPoXPS6cWj9M0w-57" source="BoxG3O7RYdr3jMfG4PqG-24" target="BoxG3O7RYdr3jMfG4PqG-29" edge="1">
          <mxGeometry relative="1" as="geometry" />
        </mxCell>
        <mxCell id="BoxG3O7RYdr3jMfG4PqG-24" value="Fast RCNN(fc)&lt;br&gt;(RoI Head)" style="rounded=1;whiteSpace=wrap;html=1;fillColor=#008a00;fontColor=#ffffff;strokeColor=#005700;" parent="IHbscHtPoXPS6cWj9M0w-57" vertex="1">
          <mxGeometry x="457.66101694915255" y="270" width="119.38983050847457" height="60" as="geometry" />
        </mxCell>
        <mxCell id="BoxG3O7RYdr3jMfG4PqG-26" value="fine tuning" style="text;html=1;align=center;verticalAlign=middle;resizable=0;points=[];autosize=1;strokeColor=none;fillColor=none;rotation=0;" parent="IHbscHtPoXPS6cWj9M0w-57" vertex="1">
          <mxGeometry x="355.1847457627118" y="270" width="80" height="30" as="geometry" />
        </mxCell>
        <mxCell id="BoxG3O7RYdr3jMfG4PqG-32" style="edgeStyle=orthogonalEdgeStyle;rounded=0;orthogonalLoop=1;jettySize=auto;html=1;" parent="IHbscHtPoXPS6cWj9M0w-57" source="BoxG3O7RYdr3jMfG4PqG-29" edge="1">
          <mxGeometry relative="1" as="geometry">
            <mxPoint x="338.271186440678" y="450" as="targetPoint" />
          </mxGeometry>
        </mxCell>
        <mxCell id="BoxG3O7RYdr3jMfG4PqG-29" value="Fore CNN" style="rounded=1;whiteSpace=wrap;html=1;fillColor=#ffff88;strokeColor=#36393d;" parent="IHbscHtPoXPS6cWj9M0w-57" vertex="1">
          <mxGeometry x="14.923728813559322" y="420" width="119.38983050847457" height="60" as="geometry" />
        </mxCell>
        <mxCell id="BoxG3O7RYdr3jMfG4PqG-31" value="Share conv between RPN &amp;amp; Fast RCNN" style="text;html=1;align=center;verticalAlign=middle;resizable=0;points=[];autosize=1;strokeColor=none;fillColor=none;rotation=-20;" parent="IHbscHtPoXPS6cWj9M0w-57" vertex="1">
          <mxGeometry x="149.23728813559322" y="350" width="240" height="30" as="geometry" />
        </mxCell>
        <mxCell id="BoxG3O7RYdr3jMfG4PqG-33" value="Faster RCNN" style="rounded=1;whiteSpace=wrap;html=1;fillColor=#cce5ff;strokeColor=#36393d;" parent="IHbscHtPoXPS6cWj9M0w-57" vertex="1">
          <mxGeometry x="338.271186440678" y="420" width="119.38983050847457" height="60" as="geometry" />
        </mxCell>
        <mxCell id="BoxG3O7RYdr3jMfG4PqG-34" value="compose" style="text;html=1;align=center;verticalAlign=middle;resizable=0;points=[];autosize=1;strokeColor=none;fillColor=none;" parent="IHbscHtPoXPS6cWj9M0w-57" vertex="1">
          <mxGeometry x="198.98305084745763" y="420" width="70" height="30" as="geometry" />
        </mxCell>
      </root>
    </mxGraphModel>
  </diagram>
</mxfile>
